HIERARCHY
ROOT joint_Root
{
	OFFSET 0.0 0.0 0.0
	CHANNELS 6 Xposition Yposition Zposition Zrotation Xrotation Yrotation 
	JOINT Hips
	{
		OFFSET -17.1583 93.1646 452.98
		CHANNELS 6 Xposition Yposition Zposition Zrotation Xrotation Yrotation 
		JOINT Spine
		{
			OFFSET 15.7357 0.0 0.0
			CHANNELS 6 Xposition Yposition Zposition Zrotation Xrotation Yrotation 
			JOINT Chest
			{
				OFFSET 8.98455 -0.406207 0.0
				CHANNELS 6 Xposition Yposition Zposition Zrotation Xrotation Yrotation 
				JOINT Neck
				{
					OFFSET 16.3773 0.0 0.0
					CHANNELS 6 Xposition Yposition Zposition Zrotation Xrotation Yrotation 
					JOINT Head
					{
						OFFSET 6.45672 0.0 0.0
						CHANNELS 6 Xposition Yposition Zposition Zrotation Xrotation Yrotation 
						End Site
						{
							OFFSET 0.0 0.0 0.0
						}
					}
				}
				JOINT Shoulder_L
				{
					OFFSET 12.9942 -0.242716 4.98039
					CHANNELS 6 Xposition Yposition Zposition Zrotation Xrotation Yrotation 
					JOINT UpperArm_L
					{
						OFFSET 5.34809 0.0 0.0
						CHANNELS 6 Xposition Yposition Zposition Zrotation Xrotation Yrotation 
						JOINT LowerArm_L
						{
							OFFSET 24.3286 1.87007e-05 0.0
							CHANNELS 6 Xposition Yposition Zposition Zrotation Xrotation Yrotation 
							JOINT Hand_L
							{
								OFFSET 22.2916 0.0 0.0
								CHANNELS 6 Xposition Yposition Zposition Zrotation Xrotation Yrotation 
								End Site
								{
									OFFSET 0.0 0.0 0.0
								}
							}
						}
					}
				}
				JOINT Shoulder_R
				{
					OFFSET 12.9945 -0.242716 -4.98039
					CHANNELS 6 Xposition Yposition Zposition Zrotation Xrotation Yrotation 
					JOINT UpperArm_R
					{
						OFFSET -5.34813 0.0 0.0
						CHANNELS 6 Xposition Yposition Zposition Zrotation Xrotation Yrotation 
						JOINT LowerArm_R
						{
							OFFSET -24.3289 0.000322201 0.0
							CHANNELS 6 Xposition Yposition Zposition Zrotation Xrotation Yrotation 
							JOINT Hand_R
							{
								OFFSET -22.2915 -0.000108084 0.0
								CHANNELS 6 Xposition Yposition Zposition Zrotation Xrotation Yrotation 
								End Site
								{
									OFFSET 0.0 0.0 0.0
								}
							}
						}
					}
				}
			}
		}
		JOINT UpperLeg_L
		{
			OFFSET -2.19248 -6.46944 0.0
			CHANNELS 6 Xposition Yposition Zposition Zrotation Xrotation Yrotation 
			JOINT LowerLeg_L
			{
				OFFSET 39.0811 0.0 -1.23785e-05
				CHANNELS 6 Xposition Yposition Zposition Zrotation Xrotation Yrotation 
				JOINT Foot_L
				{
					OFFSET 40.9854 0.0 -1.26872e-05
					CHANNELS 6 Xposition Yposition Zposition Zrotation Xrotation Yrotation 
					JOINT Toes_L
					{
						OFFSET 11.7543 0.0 0.0
						CHANNELS 6 Xposition Yposition Zposition Zrotation Xrotation Yrotation 
						End Site
						{
							OFFSET 0.0 0.0 0.0
						}
					}
				}
			}
		}
		JOINT UpperLeg_R
		{
			OFFSET -2.19251 6.46944 0.0
			CHANNELS 6 Xposition Yposition Zposition Zrotation Xrotation Yrotation 
			JOINT LowerLeg_R
			{
				OFFSET -39.0811 -0.00228153 -0.0401928
				CHANNELS 6 Xposition Yposition Zposition Zrotation Xrotation Yrotation 
				JOINT Foot_R
				{
					OFFSET -40.9854 0.0 0.0
					CHANNELS 6 Xposition Yposition Zposition Zrotation Xrotation Yrotation 
					JOINT Toes_R
					{
						OFFSET -11.7543 0.0 0.0
						CHANNELS 6 Xposition Yposition Zposition Zrotation Xrotation Yrotation 
						End Site
						{
							OFFSET 0.0 0.0 0.0
						}
					}
				}
			}
		}
	}
}
MOTION
Frames:	6
Frame Time:	0.0333333
0.000000 0.000000 0.000000 0.000000 0.000000 -0.000000 -0.767883 93.242500 -0.135227 87.312100 -0.245052 -1.577010 15.735700 0.000005 -0.000001 80.432500 88.557700 -78.667500 8.984550 -0.406207 -0.000000 -4.908840 -0.674072 3.503900 16.377300 -0.000001 -0.000001 3.121900 2.740010 -2.320660 6.456720 -0.000001 -0.000000 6.914590 2.767770 0.003952 12.994200 -0.242716 4.980390 -92.271100 6.925640 -71.793800 5.348090 -0.000007 -0.000001 -77.274600 20.467500 5.390270 24.328600 0.000019 0.000005 18.665800 30.501900 -33.646100 22.291600 -0.000001 0.000005 -4.955280 5.124270 4.551820 12.994500 -0.242716 -4.980390 88.686100 4.192760 -72.583200 -5.348130 -0.000001 -0.000004 -71.426900 17.567100 2.992980 -24.328900 0.000322 -0.000009 5.968600 8.874340 -34.131100 -22.291500 -0.000108 -0.000004 -9.452540 5.129850 4.421030 -2.192480 -6.469440 -0.000000 -176.961000 -1.648100 -3.275430 39.081100 -0.000007 -0.000012 0.145927 -0.500341 16.259800 40.985400 -0.000006 -0.000013 2.490810 8.869570 -70.461700 11.754300 -0.000000 0.000003 -0.000136 0.169890 -9.686040 -2.192510 6.469440 -0.000001 -175.839000 6.700490 -179.159000 -39.081100 -0.002282 -0.040193 -0.000111 0.021547 9.101300 -40.985400 0.000008 0.000006 -3.849730 4.485790 -66.022600 -11.754300 -0.000006 -0.000006 -0.011665 0.283353 -5.057930
0.000000 0.000000 0.000000 0.000000 0.000000 -0.000000 -0.798234 93.249400 -0.213169 87.277600 -0.166778 -1.695970 15.735700 0.000005 -0.000001 80.086200 88.526200 -78.300100 8.984550 -0.406207 -0.000000 -4.849080 -0.703492 3.545020 16.377300 -0.000001 -0.000001 2.863590 2.670850 -2.070030 6.456720 -0.000001 -0.000000 5.966210 2.832570 0.314647 12.994200 -0.242716 4.980390 -92.310400 7.017030 -71.723600 5.348090 -0.000007 -0.000001 -76.953300 17.905500 5.533500 24.328600 0.000019 0.000005 19.714500 30.280200 -35.399700 22.291600 -0.000001 0.000005 -5.047990 5.123350 4.573440 12.994500 -0.242716 -4.980390 88.691600 4.138750 -72.439500 -5.348130 -0.000001 -0.000004 -70.848300 14.673200 3.642130 -24.328900 0.000322 -0.000009 6.501740 8.594620 -37.334000 -22.291500 -0.000108 -0.000004 -9.320130 5.110380 4.874430 -2.192480 -6.469440 -0.000000 -176.905000 -1.658110 -3.511010 39.081100 -0.000007 -0.000012 0.146864 -0.501275 16.329900 40.985400 -0.000006 -0.000013 2.474570 8.928720 -70.373700 11.754300 -0.000000 0.000003 -0.000086 0.169068 -9.719450 -2.192510 6.469440 -0.000001 -175.748000 6.737340 -179.336000 -39.081100 -0.002282 -0.040193 0.000103 0.020251 9.082070 -40.985400 0.000008 0.000006 -3.818750 4.439410 -65.921100 -11.754300 -0.000006 -0.000006 -0.011545 0.282511 -5.092390
0.000000 0.000000 0.000000 0.000000 0.000000 -0.000000 -0.819028 93.277000 -0.307632 87.332300 -0.072178 -1.776760 15.735700 0.000005 -0.000001 79.435400 88.476600 -77.664400 8.984550 -0.406207 -0.000000 -4.756970 -0.751509 3.513420 16.377300 -0.000001 -0.000001 2.571770 2.599900 -1.701730 6.456720 -0.000001 -0.000000 4.905620 2.935690 0.823877 12.994200 -0.242716 4.980390 -92.348700 7.064990 -71.557900 5.348090 -0.000007 -0.000001 -76.549800 14.961800 5.826820 24.328600 0.000019 0.000005 21.497300 29.803200 -38.394200 22.291600 -0.000001 0.000005 -5.013240 5.115330 4.760220 12.994500 -0.242716 -4.980390 88.687200 4.115200 -72.290000 -5.348130 -0.000001 -0.000004 -70.104200 11.875700 4.239040 -24.328900 0.000322 -0.000009 7.607130 8.804550 -41.108600 -22.291500 -0.000108 -0.000004 -8.681950 5.092830 5.277260 -2.192480 -6.469440 -0.000000 -176.940000 -1.570970 -3.553420 39.081100 -0.000007 -0.000012 0.144288 -0.498997 16.127800 40.985400 -0.000006 -0.000013 2.442130 8.987640 -70.325100 11.754300 -0.000000 0.000003 -0.000197 0.170880 -9.645820 -2.192510 6.469440 -0.000001 -175.759000 6.751670 -179.459000 -39.081100 -0.002282 -0.040193 0.000331 0.018921 9.038580 -40.985400 0.000008 0.000006 -3.726770 4.349470 -65.898300 -11.754300 -0.000006 -0.000006 -0.011674 0.283417 -5.055320
0.000000 0.000000 0.000000 0.000000 0.000000 -0.000000 -0.851518 93.291100 -0.409803 87.312500 -0.009321 -1.916160 15.735700 0.000005 -0.000001 79.749200 88.447900 -77.977700 8.984550 -0.406207 -0.000000 -4.697530 -0.744471 3.514930 16.377300 -0.000001 -0.000001 2.217700 2.442650 -1.278440 6.456720 -0.000001 -0.000000 3.694510 2.911080 1.547450 12.994200 -0.242716 4.980390 -92.379100 7.083810 -71.381500 5.348090 -0.000007 -0.000001 -76.050200 11.509700 6.146390 24.328600 0.000019 0.000005 23.253400 28.347100 -42.145300 22.291600 -0.000001 0.000005 -4.417540 5.105690 4.983130 12.994500 -0.242716 -4.980390 88.696500 4.041290 -72.106800 -5.348130 -0.000001 -0.000004 -69.398200 8.914310 4.944120 -24.328900 0.000322 -0.000009 9.450320 9.315350 -45.799800 -22.291500 -0.000108 -0.000004 -7.741640 5.065780 5.885880 -2.192480 -6.469440 -0.000000 -176.897000 -1.498920 -3.785840 39.081100 -0.000007 -0.000012 0.142976 -0.494594 16.123600 40.985400 -0.000006 -0.000013 2.400760 8.971870 -70.173800 11.754300 -0.000000 0.000003 -0.000049 0.168443 -9.744830 -2.192510 6.469440 -0.000001 -175.690000 6.747320 -179.644000 -39.081100 -0.002282 -0.040193 0.000645 0.017073 8.970990 -40.985400 0.000008 0.000006 -3.805540 4.312850 -65.773300 -11.754300 -0.000006 -0.000006 -0.011673 0.283404 -5.055830
0.000000 0.000000 0.000000 0.000000 0.000000 -0.000000 -0.891652 93.310400 -0.528768 87.321900 0.098408 -1.964870 15.735700 0.000005 -0.000001 80.597400 88.401200 -78.838100 8.984550 -0.406207 -0.000000 -4.598260 -0.711624 3.492480 16.377300 -0.000001 -0.000001 1.867090 2.240820 -0.770393 6.456720 -0.000001 -0.000000 2.518410 2.767950 2.402480 12.994200 -0.242716 4.980390 -92.388300 7.040700 -71.208100 5.348090 -0.000007 -0.000001 -75.629100 7.716390 6.417090 24.328600 0.000019 0.000005 25.019600 26.086900 -46.705500 22.291600 -0.000001 0.000005 -3.015250 5.070710 5.773950 12.994500 -0.242716 -4.980390 88.691600 4.029760 -71.995800 -5.348130 -0.000001 -0.000004 -68.607300 5.867640 5.810440 -24.328900 0.000322 -0.000009 12.019700 9.762680 -51.464500 -22.291500 -0.000108 -0.000004 -6.742000 5.023930 6.804310 -2.192480 -6.469440 -0.000000 -176.874000 -1.410970 -3.904280 39.081100 -0.000007 -0.000012 0.141621 -0.491520 16.073400 40.985400 -0.000006 -0.000013 2.352500 8.976900 -70.105900 11.754300 -0.000000 0.000003 -0.000113 0.169507 -9.701600 -2.192510 6.469440 -0.000001 -175.646000 6.780960 -179.762000 -39.081100 -0.002282 -0.040193 0.000809 0.016094 8.940270 -40.985400 0.000008 0.000006 -3.730840 4.243320 -65.730900 -11.754300 -0.000006 -0.000006 -0.011696 0.283572 -5.048970
0.000000 0.000000 0.000000 0.000000 0.000000 -0.000000 -0.944365 93.314500 -0.627629 87.312000 0.281955 -1.946080 15.735700 0.000005 -0.000001 80.918200 88.340400 -79.148100 8.984550 -0.406207 -0.000000 -4.475150 -0.712453 3.514700 16.377300 -0.000001 -0.000001 1.545720 1.982970 -0.240119 6.456720 -0.000001 -0.000000 1.474980 2.509880 3.289040 12.994200 -0.242716 4.980390 -92.404100 7.032010 -71.071400 5.348090 -0.000007 -0.000001 -75.144200 4.763670 6.634760 24.328600 0.000019 0.000005 28.209400 24.060300 -52.762300 22.291600 -0.000001 0.000005 -0.727536 5.026770 6.740320 12.994500 -0.242716 -4.980390 88.707000 3.959280 -71.898100 -5.348130 -0.000001 -0.000004 -67.865000 2.822890 6.690460 -24.328900 0.000322 -0.000009 15.634500 10.079100 -57.976900 -22.291500 -0.000108 -0.000004 -5.621130 4.979320 7.753870 -2.192480 -6.469440 -0.000000 -176.821000 -1.167150 -4.030410 39.081100 -0.000007 -0.000012 0.142364 -0.490947 16.171300 40.985400 -0.000006 -0.000013 2.304540 8.950680 -70.072300 11.754300 -0.000000 0.000003 -0.000031 0.168146 -9.756860 -2.192510 6.469440 -0.000001 -175.581000 6.895230 -179.789000 -39.081100 -0.002282 -0.040193 0.000833 0.016012 8.901400 -40.985400 0.000008 0.000006 -3.731010 4.159470 -65.676300 -11.754300 -0.000006 -0.000006 -0.011579 0.282751 -5.082590
